nColumns=19
nRows=97
DataType=double
version=3
OpenSimVersion=4.1
endheader
time	ground_force_calcn_r_vx	ground_force_calcn_r_vy	ground_force_calcn_r_vz	ground_force_calcn_r_px	ground_force_calcn_r_py	ground_force_calcn_r_pz	ground_force_calcn_r_mx	ground_force_calcn_r_my	ground_force_calcn_r_mz	ground_force_calcn_l_vx	ground_force_calcn_l_vy	ground_force_calcn_l_vz	ground_force_calcn_l_px	ground_force_calcn_l_py	ground_force_calcn_l_pz	ground_force_calcn_l_mx	ground_force_calcn_l_my	ground_force_calcn_l_mz
2.75	-152.482	1449.78	-17.0419	0.808888	0	-0.281568	-0.229297	2.18013	-0.0256271	0	0	0	0	0	0	0	0	0
2.76	-126.297	1442.1	-56.941	0.781517	0	-0.279403	0.0259486	-0.296292	0.011699	0	0	0	0	0	0	0	0	0
2.77	-101.875	1413.12	-78.9611	0.749341	0	-0.277986	0.211694	-2.93643	0.16408	0	0	0	0	0	0	0	0	0
2.78	-69.5789	1385.12	-56.9962	0.708622	0	-0.276848	0.219681	-4.37323	0.179954	0	0	0	0	0	0	0	0	0
2.79	-15.2733	1346.95	-32.9019	0.660039	0	-0.276145	0.0490613	-4.32672	0.105688	0	0	0	0	0	0	0	0	0
2.8	58.2397	1286.01	-20.2411	0.6081	0	-0.276111	-0.1602	-3.53743	0.0556772	0	0	0	0	0	0	0	0	0
2.81	132.741	1200.93	-4.32809	0.558015	0	-0.276653	-0.329247	-2.97874	0.0107353	0	0	0	0	0	0	0	0	0
2.82	199.156	1088.27	20.1153	0.51252	0	-0.277503	-0.563874	-3.08123	-0.0569527	0	0	0	0	0	0	0	0	0
2.83	249.481	938.38	47.4984	0.471476	0	-0.2784	-0.932535	-3.50757	-0.177544	0	0	0	0	0	0	0	0	0
2.84	264.534	746.634	67.3171	0.432541	0	-0.279065	-1.27941	-3.61106	-0.325576	0	0	0	0	0	0	0	0	0
2.85	230.098	524.271	68.7018	0.390673	0	-0.279041	-1.334	-3.03948	-0.398302	0	0	0	0	0	0	0	0	0
2.86	166.356	310.911	50.6826	0.334404	0	-0.276785	-0.932369	-1.74255	-0.284058	0	0	0	0	0	0	0	0	0
2.87	101.799	154.417	26.412	0.22844	0	-0.26342	0.0834976	0.126656	0.0216636	0	0	0	0	0	0	0	0	0
2.88	49.1158	67.4135	9.36259	-0.176281	0	-0.164051	1.54282	2.11759	0.294097	0	0	0	0	0	0	0	0	0
2.89	14.5836	27.805	1.02068	-0.00277548	0	-0.000676818	-9.06818e-19	-1.72894e-18	-6.34665e-20	0	0	0	0	0	0	0	0	0
2.9	-0.868759	12.708	-2.28382	-0.00277548	0	-0.000676776	-0	0	-0	0	0	0	0	0	0	0	0	0
2.91	0	0	0	0	0	0	0	0	0	0	0	0	0	0	0	0	0	0
2.92	0	0	0	0	0	0	0	0	0	0	0	0	0	0	0	0	0	0
2.93	0	0	0	0	0	0	0	0	0	0	0	0	0	0	0	0	0	0
2.94	0	0	0	0	0	0	0	0	0	-1.45953	11.6909	-4.46526	-0.00277573	0	-0.000674485	1.38791e-19	-1.11173e-18	4.24616e-19
2.95	0	0	0	0	0	0	0	0	0	-2.0285	31.4622	-2.88124	1.03741	0	-0.328681	-0.24669	3.82617	-0.350392
2.96	0	0	0	0	0	0	0	0	0	-5.01114	112.24	-7.1362	0.918465	0	-0.34986	-0.0817454	1.83094	-0.116411
2.97	0	0	0	0	0	0	0	0	0	-10.6435	344.43	-15.5187	0.948206	0	-0.331857	0.0373962	-1.21016	0.0545253
2.98	0	0	0	0	0	0	0	0	0	-30.6199	745.963	-4.29287	0.950408	0	-0.326685	0.183165	-4.46228	0.0256795
2.99	0	0	0	0	0	0	0	0	0	-79.1915	1087.11	27.6393	0.947487	0	-0.324186	0.537529	-7.37895	-0.187607
3	0	0	0	0	0	0	0	0	0	-139.093	1154.18	11.4526	0.938535	0	-0.323929	1.09714	-9.104	-0.0903361
3.01	0	0	0	0	0	0	0	0	0	-182.268	1084.29	-68.0571	0.918842	0	-0.326215	1.51992	-9.04177	0.567522
3.02	0	0	0	0	0	0	0	0	0	-197.445	1076.79	-74.7408	0.885241	0	-0.330344	1.47503	-8.04427	0.558357
3.03	0	0	0	0	0	0	0	0	0	-182.173	1159.71	35.6602	0.842238	0	-0.333981	1.16189	-7.39657	-0.227438
3.04	0	0	0	0	0	0	0	0	0	-140.575	1260.19	106.105	0.800327	0	-0.336196	0.798215	-7.15567	-0.602487
3.05	0	0	0	0	0	0	0	0	0	-92.6525	1318.34	62.7651	0.764837	0	-0.337791	0.455002	-6.47419	-0.30823
3.06	0	0	0	0	0	0	0	0	0	-57.2675	1335.02	17.4431	0.733835	0	-0.339082	0.202511	-4.72093	-0.0616828
3.07	0	0	0	0	0	0	0	0	0	-29.8789	1331.74	37.4942	0.70316	0	-0.339912	0.0621097	-2.7683	-0.0779397
3.08	0	0	0	0	0	0	0	0	0	1.40081	1309.71	58.6277	0.669321	0	-0.340296	-0.00200402	-1.87369	-0.0838737
3.09	0	0	0	0	0	0	0	0	0	39.3519	1259.82	42.5547	0.630607	0	-0.340239	-0.0741618	-2.37423	-0.0801977
3.1	0	0	0	0	0	0	0	0	0	87.8058	1180.68	18.8047	0.587042	0	-0.339532	-0.268491	-3.61025	-0.0575005
3.11	0	0	0	0	0	0	0	0	0	149.805	1069.65	0.742567	0.540379	0	-0.338117	-0.642604	-4.58837	-0.00318532
3.12	0	0	0	0	0	0	0	0	0	208.041	925.698	-17.8011	0.493339	0	-0.336298	-1.00382	-4.46658	0.0858918
3.13	0	0	0	0	0	0	0	0	0	231.12	751.733	-32.9488	0.447716	0	-0.334373	-0.854683	-2.77991	0.121845
3.14	0	0	0	0	0	0	0	0	0	208.863	553.038	-41.8135	0.40179	0	-0.332184	0.187206	0.495692	-0.0374778
3.15	0	0	0	0	0	0	0	0	0	159.063	353.052	-46.2134	0.347652	0	-0.327848	2.11923	4.70378	-0.615711
3.16	0	0	0	0	0	0	0	0	0	105.84	190.592	-40.639	0.263329	0	-0.314171	4.43947	7.99435	-1.7046
3.17	0	0	0	0	0	0	0	0	0	58.3015	88.347	-24.6421	0.053718	0	-0.272825	5.71941	8.6669	-2.41741
3.18	0	0	0	0	0	0	0	0	0	20.8093	38.0406	-8.71482	-2.07762	0	0.557807	4.27215	7.80974	-1.78916
3.19	0	0	0	0	0	0	0	0	0	-0.397129	16.5802	-1.02449	-0.00277562	0	-0.00067321	1.5702e-20	-6.55561e-19	4.05071e-20
3.2	0	0	0	0	0	0	0	0	0	0	0	0	0	0	0	0	0	0
3.21	0	0	0	0	0	0	0	0	0	0	0	0	0	0	0	0	0	0
3.22	0	0	0	0	0	0	0	0	0	0	0	0	0	0	0	0	0	0
3.23	0	0	0	0	0	0	0	0	0	0	0	0	0	0	0	0	0	0
3.24	-2.87294	19.7255	-4.24043	-0.00277535	0	-0.000674753	3.37935e-19	-2.32026e-18	4.98789e-19	0	0	0	0	0	0	0	0	0
3.25	1.07485	65.2749	-3.33591	5.0849	0	-1.21062	-0.0278673	-1.69236	0.0864886	0	0	0	0	0	0	0	0	0
3.26	10.0201	228.482	-14.0781	0.947964	0	-0.277594	-0.0534946	-1.2198	0.0751592	0	0	0	0	0	0	0	0	0
3.27	13.161	593.712	-30.6174	0.957278	0	-0.280084	0.0443801	2.00206	-0.103245	0	0	0	0	0	0	0	0	0
3.28	-29.6033	1038.49	-9.65693	0.958385	0	-0.281407	-0.162733	5.70872	-0.0530853	0	0	0	0	0	0	0	0	0
3.29	-127.888	1251.07	56.6859	0.956183	0	-0.282773	-0.747553	7.31299	0.331351	0	0	0	0	0	0	0	0	0
3.3	-223.836	1200.28	78.1071	0.947835	0	-0.284107	-1.16274	6.23499	0.405735	0	0	0	0	0	0	0	0	0
3.31	-274.706	1158.49	4.53035	0.926787	0	-0.284373	-0.960937	4.05245	0.0158474	0	0	0	0	0	0	0	0	0
3.32	-267.911	1247.93	-59.5242	0.890828	0	-0.282865	-0.515647	2.40189	-0.114566	0	0	0	0	0	0	0	0	0
3.33	-225.917	1397.03	-43.3055	0.849895	0	-0.28039	-0.257829	1.59436	-0.0494226	0	0	0	0	0	0	0	0	0
3.34	-175.107	1504.86	-17.4285	0.812816	0	-0.278271	-0.104386	0.897089	-0.0103897	0	0	0	0	0	0	0	0	0
3.35	-126.181	1536.77	-32.6661	0.778383	0	-0.277086	0.0152092	-0.185236	0.00393743	0	0	0	0	0	0	0	0	0
3.36	-75.7074	1511.19	-48.9197	0.741293	0	-0.276628	0.0621068	-1.23971	0.0401315	0	0	0	0	0	0	0	0	0
3.37	-10.4016	1458.26	-38.9057	0.697835	0	-0.27656	0.0111851	-1.56811	0.0418364	0	0	0	0	0	0	0	0	0
3.38	71.6206	1389.67	-20.6733	0.648341	0	-0.276688	-0.0564061	-1.09446	0.0162816	0	0	0	0	0	0	0	0	0
3.39	152.888	1299.59	-3.88417	0.596897	0	-0.276936	-0.0606086	-0.515187	0.00153978	0	0	0	0	0	0	0	0	0
3.4	216.874	1175.86	13.5095	0.548115	0	-0.277309	-0.10867	-0.589195	-0.00676926	0	0	0	0	0	0	0	0	0
3.41	259.145	1006.41	32.7249	0.504165	0	-0.277775	-0.338755	-1.31558	-0.042778	0	0	0	0	0	0	0	0	0
3.42	267.278	791.376	50.1414	0.464515	0	-0.27807	-0.622976	-1.84455	-0.11687	0	0	0	0	0	0	0	0	0
3.43	229.821	555.221	53.662	0.426206	0	-0.277298	-0.534455	-1.29118	-0.124793	0	0	0	0	0	0	0	0	0
3.44	163.085	339.279	35.717	0.380909	0	-0.273044	0.18718	0.389405	0.0409939	0	0	0	0	0	0	0	0	0
3.45	99.2122	177.582	8.91732	0.298875	0	-0.257531	1.29899	2.32508	0.116754	0	0	0	0	0	0	0	0	0
3.46	51.2697	78.6856	-4.36323	-0.0574788	0	-0.181325	2.16952	3.32965	-0.184634	0	0	0	0	0	0	0	0	0
3.47	17.611	31.886	-0.922319	1.02305	0	-0.406716	1.97904	3.58319	-0.103646	0	0	0	0	0	0	0	0	0
3.48	-0.78388	13.605	2.57584	-0.00277522	0	-0.000672779	-7.35963e-20	1.27733e-18	2.41839e-19	0	0	0	0	0	0	0	0	0
3.49	0	0	0	0	0	0	0	0	0	0	0	0	0	0	0	0	0	0
3.5	0	0	0	0	0	0	0	0	0	0	0	0	0	0	0	0	0	0
3.51	0	0	0	0	0	0	0	0	0	0	0	0	0	0	0	0	0	0
3.52	0	0	0	0	0	0	0	0	0	-3.09568	10.0462	-2.0293	-0.00277542	0	-0.000670891	1.78079e-19	-5.77906e-19	1.16736e-19
3.53	0	0	0	0	0	0	0	0	0	-4.34229	14.3547	-4.09169	-0.00277541	0	-0.000670813	8.17416e-19	-2.70221e-18	7.70242e-19
3.54	0	0	0	0	0	0	0	0	0	-2.01817	45.3682	-3.96876	1.09361	0	-0.289564	-0.0684983	1.53983	-0.134703
3.55	0	0	0	0	0	0	0	0	0	2.58195	174.519	-13.1833	0.978777	0	-0.32744	0.000630866	0.0426413	-0.00322117
3.56	0	0	0	0	0	0	0	0	0	0.372004	493.095	-28.133	0.988424	0	-0.318805	-0.000918381	-1.21732	0.0694531
3.57	0	0	0	0	0	0	0	0	0	-37.9154	934.312	-23.4362	0.988419	0	-0.315362	0.118064	-2.90934	0.0729775
3.58	0	0	0	0	0	0	0	0	0	-117.827	1197.58	-8.31461	0.984936	0	-0.313822	0.511696	-5.2008	0.0361084
3.59	0	0	0	0	0	0	0	0	0	-185.427	1165.42	-46.1274	0.975442	0	-0.314102	1.1094	-6.97267	0.275978
3.6	0	0	0	0	0	0	0	0	0	-212.778	1070.47	-114.904	0.95363	0	-0.316501	1.4175	-7.13135	0.765475
3.61	0	0	0	0	0	0	0	0	0	-211.454	1086.92	-83.2072	0.91598	0	-0.32008	1.22184	-6.28053	0.480795
3.62	0	0	0	0	0	0	0	0	0	-181.704	1192.4	31.0396	0.870029	0	-0.32286	0.839332	-5.50799	-0.143379
3.63	0	0	0	0	0	0	0	0	0	-127.462	1298.72	64.5906	0.828603	0	-0.324763	0.505355	-5.1491	-0.256085
3.64	0	0	0	0	0	0	0	0	0	-74.8782	1357.76	9.25969	0.79533	0	-0.326574	0.244815	-4.43921	-0.0302746
3.65	0	0	0	0	0	0	0	0	0	-40.6431	1378.12	-10.4606	0.766561	0	-0.328247	0.0805148	-2.73007	0.0207227
3.66	0	0	0	0	0	0	0	0	0	-10.3451	1380.53	20.6047	0.737762	0	-0.329501	0.00496014	-0.661915	-0.00987925
3.67	0	0	0	0	0	0	0	0	0	25.6953	1364.88	28.2401	0.706121	0	-0.330204	0.00881408	0.468184	0.009687
3.68	0	0	0	0	0	0	0	0	0	63.7535	1325.03	7.69975	0.670725	0	-0.330213	-0.00645807	-0.134222	-0.000779966
3.69	0	0	0	0	0	0	0	0	0	102.016	1260.09	-8.79227	0.63157	0	-0.329405	-0.166548	-2.05718	0.014354
3.7	0	0	0	0	0	0	0	0	0	143.728	1160.48	-20.8247	0.588853	0	-0.327995	-0.465882	-3.76158	0.0675014
3.71	0	0	0	0	0	0	0	0	0	188.484	1012.06	-33.977	0.542823	0	-0.326474	-0.660626	-3.5472	0.119088
